<?xml version="1.0" encoding="utf-8"?>
<!-- Generator: Adobe Illustrator 25.0.0, SVG Export Plug-In . SVG Version: 6.00 Build 0)  -->
<svg version="1.1" id="Слой_1" xmlns="http://www.w3.org/2000/svg" xmlns:xlink="http://www.w3.org/1999/xlink" x="0px" y="0px"
	 viewBox="0 0 152 448" style="enable-background:new 0 0 152 448;" xml:space="preserve">
<style type="text/css">
	.st0{fill:#8BC34A;}
</style>
<g id="icomoon-ignore">
</g>
<path class="st0" d="M148.8,240c0,2-1,4.2-2.5,5.8L29.8,362.2c-1.5,1.5-3.8,2.5-5.8,2.5s-4.2-1-5.8-2.5L5.8,349.8
	c-1.5-1.5-2.5-3.5-2.5-5.8c0-2,1-4.2,2.5-5.8L104,240L5.8,141.8c-1.5-1.5-2.5-3.8-2.5-5.8s1-4.2,2.5-5.8l12.5-12.5
	c1.5-1.5,3.8-2.5,5.8-2.5s4.2,1,5.8,2.5l116.5,116.5C147.8,235.8,148.8,238,148.8,240z"/>
</svg>
