<?xml version="1.0" encoding="utf-8"?>
<!-- Generator: Adobe Illustrator 25.0.0, SVG Export Plug-In . SVG Version: 6.00 Build 0)  -->
<svg version="1.1" id="Слой_1" xmlns="http://www.w3.org/2000/svg" xmlns:xlink="http://www.w3.org/1999/xlink" x="0px" y="0px"
	 viewBox="0 0 224 448" style="enable-background:new 0 0 224 448;" xml:space="preserve">
<style type="text/css">
	.st0{fill:#FFFFFF;}
</style>
<g id="icomoon-ignore">
</g>
<path class="st0" d="M221.2,141.5c2.8,3,3.5,7.2,1.8,11L88,441.8c-2,3.8-6,6.2-10.5,6.2c-1,0-2.2-0.2-3.5-0.5
	c-5.5-1.8-8.8-7-7.5-12.2l49.2-202L14.2,258.5c-1,0.2-2,0.2-3,0.2c-2.8,0-5.8-1-7.8-2.8c-3-2.5-4-6.2-3.2-9.8L50.5,40
	c1.2-4.8,5.8-8,11-8h82c6.2,0,11.2,4.8,11.2,10.5c0,1.5-0.5,3-1.2,4.5l-42.8,115.8l99-24.5c1-0.2,2-0.5,3-0.5
	C216,137.8,219,139.2,221.2,141.5z"/>
</svg>
