<!-- Generated by IcoMoon.io -->
<svg version="1.1" xmlns="http://www.w3.org/2000/svg" width="448" height="448" viewBox="0 0 448 448" fill="#a0a0a0">
<title>bell-o</title>
<g id="icomoon-ignore">
</g>
<path d="M448 280c0 35-17.5 80.75-31.75 112.75-2.75 5.75-5.5 13.75-9.25 19-1.75 2.5-3.5 4.25-7 4.25-5 0-8-4-8-8.75 0-4 1-8.5 1.25-12.5 0.75-10.25 1.25-20.5 1.25-30.75 0-119.25-70.75-140-178.5-140h-56v64c0 8.75-7.25 16-16 16-4.25 0-8.25-1.75-11.25-4.75l-128-128c-3-3-4.75-7-4.75-11.25s1.75-8.25 4.75-11.25l128-128c3-3 7-4.75 11.25-4.75 8.75 0 16 7.25 16 16v64h56c82 0 184 14.5 218.75 100.75 10.5 26.5 13.25 55.25 13.25 83.25z"></path>
</svg>
