<?xml version="1.0" encoding="utf-8"?>
<!-- Generator: Adobe Illustrator 25.0.0, SVG Export Plug-In . SVG Version: 6.00 Build 0)  -->
<svg version="1.1" id="Слой_1" xmlns="http://www.w3.org/2000/svg" xmlns:xlink="http://www.w3.org/1999/xlink" x="0px" y="0px"
	 viewBox="0 0 256 448" style="enable-background:new 0 0 256 448;" xml:space="preserve">
<style type="text/css">
	.st0{fill:#8BC34A;}
</style>
<g id="icomoon-ignore">
</g>
<path class="st0" d="M192,160c0-35.2-28.8-64-64-64s-64,28.8-64,64s28.8,64,64,64S192,195.2,192,160z M256,160
	c0,15.2-1.8,31-8.2,44.8l-91,193.5c-5.2,11-16.8,17.8-28.8,17.8s-23.5-6.8-28.5-17.8L8.2,204.8C1.8,191,0,175.2,0,160
	C0,89.2,57.2,32,128,32S256,89.2,256,160z"/>
</svg>
