<?xml version="1.0" encoding="utf-8"?>
<!-- Generator: Adobe Illustrator 25.0.0, SVG Export Plug-In . SVG Version: 6.00 Build 0)  -->
<svg version="1.1" id="Слой_1" xmlns="http://www.w3.org/2000/svg" xmlns:xlink="http://www.w3.org/1999/xlink" x="0px" y="0px"
	 viewBox="0 0 352 448" style="enable-background:new 0 0 352 448;" xml:space="preserve">
<style type="text/css">
	.st0{fill:#8BC34A;}
</style>
<g id="icomoon-ignore">
</g>
<path class="st0" d="M352,310c0,9-4,26.5-7.8,34.8C339,357,325,365,313.8,371.2c-14.8,8-29.8,12.8-46.5,12.8
	c-23.2,0-44.2-9.5-65.5-17.2c-15.2-5.5-30-12.2-43.8-20.8c-42.5-26.2-93.8-77.5-120-120c-8.5-13.8-15.2-28.5-20.8-43.8
	C9.5,161,0,140,0,116.8C0,100,4.8,85,12.8,70.2C19,59,27,45,39.2,39.8C47.5,36,65,32,74,32c1.8,0,3.5,0,5.2,0.8
	c5.2,1.8,10.8,14,13.2,19c8,14.2,15.8,28.8,24,42.8c4,6.5,11.5,14.5,11.5,22.2c0,15.2-45.2,37.5-45.2,51c0,6.8,6.2,15.5,9.8,21.5
	c25.2,45.5,56.8,77,102.2,102.2c6,3.5,14.8,9.8,21.5,9.8c13.5,0,35.8-45.2,51-45.2c7.8,0,15.8,7.5,22.2,11.5c14,8.2,28.5,16,42.8,24
	c5,2.5,17.2,8,19,13.2C352,306.5,352,308.2,352,310z"/>
</svg>
