<!-- Generated by IcoMoon.io -->
<svg version="1.1" xmlns="http://www.w3.org/2000/svg" width="455" height="448" viewBox="0 0 455 448">
<title>edit</title>
<g id="icomoon-ignore">
</g>
<path d="M304 392v48c0 4.5-3.5 8-8 8h-64c-4.5 0-8-3.5-8-8v-48c0-4.5 3.5-8 8-8h64c4.5 0 8 3.5 8 8zM184 360c0 2.25-1 4.25-2.5 6l-79.75 79.75c-1.75 1.5-3.75 2.25-5.75 2.25s-4-0.75-5.75-2.25l-80-80c-2.25-2.5-3-5.75-1.75-8.75s4.25-5 7.5-5h48v-344c0-4.5 3.5-8 8-8h48c4.5 0 8 3.5 8 8v344h48c4.5 0 8 3.5 8 8zM352 264v48c0 4.5-3.5 8-8 8h-112c-4.5 0-8-3.5-8-8v-48c0-4.5 3.5-8 8-8h112c4.5 0 8 3.5 8 8zM400 136v48c0 4.5-3.5 8-8 8h-160c-4.5 0-8-3.5-8-8v-48c0-4.5 3.5-8 8-8h160c4.5 0 8 3.5 8 8zM448 8v48c0 4.5-3.5 8-8 8h-208c-4.5 0-8-3.5-8-8v-48c0-4.5 3.5-8 8-8h208c4.5 0 8 3.5 8 8z"></path>
</svg>
